<?xml version="1.0" encoding="UTF-8"?>
<svg id="Layer_1" xmlns="http://www.w3.org/2000/svg" version="1.1" viewBox="0 0 364.7 74">
  <!-- Generator: Adobe Illustrator 29.7.0, SVG Export Plug-In . SVG Version: 2.1.1 Build 138)  -->
  <defs>
    <style>
      .st0 {
        fill: #e53340;
      }

      .st1 {
        fill: #fff;
      }

      .st2 {
        fill: #1f448f;
      }
    </style>
  </defs>
  <g>
    <path class="st0" d="M14,4.3c-6,0-10.8,4.8-10.8,10.8v43.7c0,6,4.8,10.8,10.8,10.8h43.7c6,0,10.8-4.8,10.8-10.8V4.3H14Z"/>
    <g>
      <circle class="st1" cx="40.7" cy="35.7" r="6.6"/>
      <rect class="st1" x="17.2" y="15.7" width="9" height="33.7"/>
      <rect class="st1" x="25.7" y="49.3" width="29.3" height="9"/>
    </g>
  </g>
  <g>
    <polygon class="st2" points="91.7 4.3 83.5 4.3 83.5 46.8 111.4 46.8 111.4 40.4 91.7 40.4 91.7 4.3"/>
    <path class="st2" d="M138.6,16.3h0c-2.2-1.7-5.6-2.5-10.1-2.5s-8.4.9-10.7,2.6c-2.4,1.8-3.6,4.7-3.6,8.8v12c0,6.8,5,10.3,14.8,10.3s7.3-.4,11.1-1.3l.8-.2v-6.5l-1.4.3c-3.8,1-7.1,1.5-9.8,1.5s-4.7-.4-6-1.2c-1.2-.7-1.7-1.9-1.7-3.7v-3.5h20.1v-7.7c0-4.2-1.1-7.1-3.4-8.9h0ZM121.9,27.1v-3.7c0-1.5.4-2.5,1.3-2.9,1-.6,2.7-.9,5-.9s4.1.3,5,.9c.8.5,1.2,1.4,1.2,2.9v3.7h-12.4Z"/>
    <path class="st2" d="M161,13.8c-3.3,0-7.1.2-11.2.6h-1v6.3l1.2-.2c3.7-.5,7.1-.7,10.1-.7s4.7.5,5.2.7c.7.4,1,1.2,1,2.5v3.8h-7.9c-4.6,0-7.6.7-9.3,2.2-1.7,1.5-2.6,4-2.6,7.8s.9,7,2.8,8.5c1.8,1.4,4.8,2.2,9.2,2.2s6.3-.5,7.9-1.5v.8h7.5v-22.5c0-4.2-.9-7-2.6-8.5-1.7-1.4-5.1-2.1-10.5-2.1h0ZM164.4,41.3c-.9.2-1.6.3-2.3.3h0c-.7,0-1.6,0-2.6,0h-1.1c-1.8,0-3-.3-3.4-.9-.3-.4-.8-1.4-.8-3.8s.5-3.7.7-3.9.9-.7,4-.7h7.5v7.2c0,.4-.1.7-.4,1-.3.3-.9.5-1.6.7h0Z"/>
    <path class="st2" d="M190,15.6h0c-.4.2-.7.5-1,.7v-2h-7.4v32.4h7.7v-22.4c0-1.5.4-2.4,1.3-2.9,1.1-.6,2.8-.9,5.1-.9h.2l2.7-6.9h-2.6c-2.1,0-4.1.6-6.1,1.9h0Z"/>
    <path class="st2" d="M219.7,13.8c-4,0-6.9.7-8.8,2v-1.3h-7.7v32.4h7.7v-23c0-1.5.4-2.6,1.2-3.1.5-.3,2-.9,5.9-.9s2.4.1,3.2.4c.7.2,1.2.5,1.4.8.3.4.5.8.6,1.2.1.4.2,1,.2,1.6v23h7.7v-23.3c0-3.2-.9-5.6-2.5-7.3-1.7-1.7-4.6-2.5-8.9-2.5h0Z"/>
    <path class="st2" d="M254.5,20.2l3.2-5.8h-8.9V4.3h-7.8v10.1h-3.9l-3,5.8h6.9v16.8c0,4,.8,6.7,2.6,8.2,1.7,1.5,4.5,2.2,8.6,2.2s4.4-.2,6.4-.5l.9-.2v-5.8l-1.2.2c-2.8.4-3.9.5-4.3.5-2.9,0-3.9-.5-4.3-.8-.6-.5-.9-1.8-.9-3.6v-17.1h5.7,0Z"/>
    <path class="st2" d="M286.8,16.3h0c-2.2-1.7-5.6-2.5-10.1-2.5s-8.5.9-10.7,2.6c-2.4,1.8-3.6,4.7-3.6,8.8v12c0,6.8,5,10.3,14.8,10.3s7.3-.4,11.1-1.3l.8-.2v-6.5l-1.4.3c-3.8,1-7.1,1.5-9.8,1.5s-4.7-.4-6-1.2c-1.2-.7-1.7-1.9-1.7-3.7v-3.5h20.1v-7.7c0-4.2-1.1-7.1-3.4-8.9h0ZM270.1,27.1v-3.7c0-1.5.4-2.5,1.3-2.9,1-.6,2.7-.9,5-.9s4,.3,5,.9c.8.5,1.2,1.4,1.2,2.9v3.7h-12.4Z"/>
    <path class="st2" d="M310.2,41.4c-3.9,0-5.3-.6-5.8-.9-.7-.5-1.1-1.8-1.1-3.6v-12.4c0-2.7.6-3.7,1-4,.4-.3,1.6-.9,5.3-.9s5.8.4,8.9,1.2l1.4.3v-6.3l-.8-.2c-2.9-.6-5.9-1-8.8-1s-2.9,0-3.8,0c-1,0-2.1.2-3.3.4-1.4.2-2.5.6-3.3,1.1-.8.5-1.5,1.2-2.2,2-.8.9-1.3,2-1.7,3.4-.3,1.3-.5,2.8-.5,4.6v11.2c0,2,.3,3.7.8,5.1.5,1.4,1.2,2.5,2,3.3.8.8,2,1.4,3.4,1.8,1.4.4,2.6.6,3.7.7,1,0,2.5,0,4.3,0,3.7,0,7-.3,9.8-.9l.8-.2v-6.4l-1.4.3c-3,.8-5.9,1.2-8.7,1.2h0Z"/>
    <path class="st2" d="M350.6,16.2c-1.7-1.7-4.6-2.5-8.9-2.5s-6.9.7-8.8,2V4.3h-7.7v42.4h7.7v-22.9c0-1.5.4-2.5,1.1-3.1.5-.3,1.9-.9,6-.9s2.4.1,3.2.4c.7.2,1.2.5,1.4.8.3.4.5.8.6,1.2.1.4.2,1,.2,1.6v22.9h7.7v-23.3c0-3.2-.9-5.6-2.5-7.3h0Z"/>
  </g>
  <g>
    <path class="st2" d="M351.4,10.4v-5h-1.8v-1h4.8v1h-1.8v5h-1.2Z"/>
    <path class="st2" d="M355.7,10.4v-6h1.8l1.1,4.1,1.1-4.1h1.8v6h-1.1v-4.7l-1.2,4.7h-1.2l-1.2-4.7v4.7h-1.1,0Z"/>
  </g>
  <g>
    <path class="st2" d="M90.9,67.3h-5.4l-.9,2h-2.1l4.7-10.4h2.1l4.7,10.4h-2.1l-.9-2h0ZM88.2,61l-1.9,4.4h3.9l-1.9-4.4Z"/>
    <path class="st2" d="M105.2,58.8h2v10.4h-1.2l-5.5-7v7h-2v-10.4h1.6l5.1,6.4s0-6.5,0-6.5Z"/>
    <path class="st2" d="M121.7,67.9c-1.1,1.1-2.4,1.6-3.9,1.6-3.9,0-5.5-2.7-5.5-5.4,0-2.7,1.8-5.5,5.5-5.5s2.8.5,3.8,1.6l-1.3,1.3c-.7-.7-1.6-1-2.5-1-2.5,0-3.6,1.9-3.6,3.6,0,1.7,1,3.5,3.6,3.5s1.9-.4,2.6-1.1l1.3,1.3h0Z"/>
    <path class="st2" d="M133.5,69.2v-4.2h-5.1v4.2h-2v-10.4h2v4.4h5.1v-4.4h1.9v10.4h-1.9Z"/>
    <path class="st2" d="M151.1,64.1c0,2.7-1.7,5.4-5.3,5.4s-5.4-2.6-5.4-5.4,1.8-5.5,5.4-5.5,5.4,2.8,5.3,5.5h0ZM142.3,64.1c0,1.7,1,3.5,3.4,3.5s3.4-1.8,3.4-3.6c0-1.8-.9-3.7-3.4-3.7s-3.5,2-3.4,3.7h0Z"/>
    <path class="st2" d="M165.3,69.2h-2.3l-3-3.5h-1.9v3.5h-2v-10.4c1.6,0,3.3,0,4.9,0,2.4,0,3.7,1.7,3.7,3.4s-.6,2.9-2.6,3.3l3.1,3.6h0q0,.1,0,.1ZM158,60.6v3.3h3c1.2,0,1.8-.8,1.8-1.7s-.6-1.7-1.8-1.7h-3Z"/>
    <path class="st2" d="M169.7,69.2v-10.4h1.9v10.4h-1.9Z"/>
    <path class="st2" d="M183.9,58.8h2v10.4h-1.2l-5.5-7v7h-2v-10.4h1.6l5.1,6.4s0-6.5,0-6.5Z"/>
    <path class="st2" d="M198.9,61.4c-.7-.7-1.7-1-2.6-1-2.2,0-3.6,1.7-3.6,3.8s1,3.5,3.6,3.5,1.5-.2,2.4-.8v-1.8h-2.7v-1.8h4.5v4.4c-1,1.2-2.3,1.9-4.1,1.9-3.9,0-5.5-2.6-5.5-5.3s1.8-5.6,5.5-5.6,2.8.5,3.9,1.6l-1.2,1.2h0Z"/>
    <path class="st2" d="M216.5,63.1l2.8-4.3h2.4c0,0-4.1,6.1-4.1,6.1v4.3h-2v-4.3l-4-6h0c0,0,2.3,0,2.3,0l2.6,4.3h0Z"/>
    <path class="st2" d="M236.3,64.1c0,2.7-1.7,5.4-5.3,5.4s-5.4-2.6-5.4-5.4,1.8-5.5,5.4-5.5,5.4,2.8,5.3,5.5h0ZM227.6,64.1c0,1.7,1,3.5,3.4,3.5s3.4-1.8,3.4-3.6c0-1.8-1-3.7-3.4-3.7s-3.5,2-3.4,3.7h0Z"/>
    <path class="st2" d="M250.5,58.8v6c0,3.1-1.9,4.7-4.5,4.7s-4.6-1.5-4.6-4.7v-6h2v6c0,1.9,1.1,2.9,2.7,2.9s2.5-1.1,2.5-2.9v-6h2,0Z"/>
    <path class="st2" d="M265.2,69.2h-2.3l-3-3.5h-1.9v3.5h-2v-10.4c1.6,0,3.3,0,5,0,2.5,0,3.7,1.7,3.7,3.4s-.6,2.9-2.6,3.3l3.1,3.6h0ZM257.9,60.6v3.3h3c1.2,0,1.8-.8,1.8-1.7s-.5-1.7-1.8-1.7h-3Z"/>
    <path class="st2" d="M276.1,69.2v-10.4h7.5v1.9h-5.5v2.8h5.2v1.8h-5.2v3.8h-2Z"/>
    <path class="st2" d="M297.6,58.8v6c0,3.1-1.9,4.7-4.5,4.7s-4.6-1.5-4.6-4.7v-6h2v6c0,1.9,1.1,2.9,2.7,2.9s2.5-1.1,2.5-2.9v-6h2,0Z"/>
    <path class="st2" d="M305.8,60.6h-3.3v-1.8h8.6v1.8h-3.3v8.6h-2v-8.6h0Z"/>
    <path class="st2" d="M325.2,58.8v6c0,3.1-1.9,4.7-4.5,4.7s-4.6-1.5-4.6-4.7v-6h2v6c0,1.9,1.1,2.9,2.7,2.9s2.5-1.1,2.5-2.9v-6h2,0Z"/>
    <path class="st2" d="M339.9,69.2h-2.3l-3-3.5h-1.9v3.5h-2v-10.4c1.6,0,3.3,0,5,0,2.5,0,3.7,1.7,3.7,3.4s-.6,2.9-2.6,3.3l3.1,3.6h0ZM332.7,60.6v3.3h3c1.2,0,1.8-.8,1.8-1.7s-.5-1.7-1.8-1.7h-3Z"/>
    <path class="st2" d="M352.1,69.2h-7.8v-10.4h7.8v1.9h-5.8v2.4h5.6v1.8h-5.6v2.3h5.8v1.9Z"/>
  </g>
</svg>